<?xml version="1.0" encoding="UTF-8" standalone="no"?>
<!-- Created with Inkscape (http://www.inkscape.org/) -->

<svg
   width="79.15847mm"
   height="82.537682mm"
   viewBox="0 0 79.158473 82.537683"
   version="1.1"
   id="svg5"
   sodipodi:docname="dibujo-2.svg"
   inkscape:version="1.1.1 (3bf5ae0d25, 2021-09-20)"
   xmlns:inkscape="http://www.inkscape.org/namespaces/inkscape"
   xmlns:sodipodi="http://sodipodi.sourceforge.net/DTD/sodipodi-0.dtd"
   xmlns="http://www.w3.org/2000/svg"
   xmlns:svg="http://www.w3.org/2000/svg">
  <sodipodi:namedview
     id="namedview7"
     pagecolor="#ffffff"
     bordercolor="#666666"
     borderopacity="1.0"
     inkscape:pageshadow="2"
     inkscape:pageopacity="0.0"
     inkscape:pagecheckerboard="0"
     inkscape:document-units="mm"
     showgrid="false"
     inkscape:zoom="0.68595679"
     inkscape:cx="276.98538"
     inkscape:cy="466.50169"
     inkscape:window-width="1920"
     inkscape:window-height="974"
     inkscape:window-x="-11"
     inkscape:window-y="-11"
     inkscape:window-maximized="1"
     inkscape:current-layer="layer1" />
  <defs
     id="defs2">
    <inkscape:path-effect
       effect="fill_between_many"
       method="originald"
       linkedpaths="#image457,0,1"
       id="path-effect2732"
       is_visible="true"
       lpeversion="0"
       join="true"
       close="true"
       autoreverse="true"
       applied="false" />
  </defs>
  <g
     inkscape:label="Capa 1"
     inkscape:groupmode="layer"
     id="layer1"
     transform="translate(-22.524121,-11.058398)">
    <path
       inkscape:original-d="M 0,0"
       inkscape:path-effect="#path-effect2732"
       d="M 0,0"
       id="path2734" />
    <path
       style="fill:#000000;stroke-width:0.0846667"
       id="path2694"
       d="" />
    <path
       style="fill:#000000;stroke-width:0.0846667"
       id="path559"
       d="" />
    <g
       id="g26102"
       transform="matrix(0.6976375,0,0,0.75261758,6.2650996,2.6958086)">
      <g
         id="g26658"
         transform="translate(-28.157143,-25.071429)">
        <path
           style="fill:none;fill-opacity:0;fill-rule:evenodd;stroke:#812900;stroke-width:0;stroke-linecap:round;stroke-linejoin:round;stroke-miterlimit:4;stroke-dasharray:none;stroke-opacity:1;paint-order:markers fill stroke"
           id="path7154"
           d="m 156.80202,106.59435 c -1.74408,0.61081 -3.47185,1.27034 -5.23224,1.83243 -3.35974,1.07276 -6.74408,2.06722 -10.12503,3.07114 -9.50893,2.82353 -16.42378,4.76709 -26.02224,7.50537 0,0 -1.48067,1.13945 -1.48067,1.13945 v 0 c 5.76816,-1.61914 19.57127,-5.50082 25.57463,-7.15936 3.17484,-0.87711 6.36699,-1.69193 9.53339,-2.59904 1.61137,-0.46163 3.1984,-1.00434 4.7976,-1.50651 0,0 2.95456,-2.28348 2.95456,-2.28348 z" />
        <path
           style="fill:none;fill-opacity:0;fill-rule:nonzero;stroke:#812900;stroke-width:0;stroke-linecap:round;stroke-linejoin:round;stroke-miterlimit:4;stroke-dasharray:none;stroke-opacity:1;paint-order:markers fill stroke"
           id="path7224"
           d="m 125.86201,138.44858 c -14.41943,0.0981 -28.875508,0.79865 -43.19247,2.58361 -3.592906,0.44794 -7.161776,1.07122 -10.742662,1.60684 -2.934486,0.54563 -5.868974,1.09127 -8.80346,1.6369 0,0 -2.081938,1.57433 -2.081938,1.57433 v 0 c 3.008252,-0.60517 6.016504,-1.21033 9.024755,-1.8155 3.625255,-0.57342 7.235653,-1.2503 10.875767,-1.72026 13.820309,-1.78426 27.840808,-2.46136 41.754698,-1.59822 0,0 3.16531,-2.2677 3.16531,-2.2677 z" />
        <path
           style="fill:none;stroke:#3e51ab;stroke-width:0.776991px;stroke-linecap:butt;stroke-linejoin:miter;stroke-opacity:1"
           d="M 63.038835,59.455151 C 59.691545,58.455482 55.040589,59.184978 53.539359,64.076958 46.075953,88.397746 65.006008,106.8204 78.568975,92.07665 81.797207,86.420433 80.20163,82.529326 79.369929,78.260301 76.955588,69.852873 70.638581,61.231039 63.038835,59.455151"
           id="path7921"
           sodipodi:nodetypes="csccc" />
        <path
           style="fill:none;stroke:#3e51ab;stroke-width:0.776991px;stroke-linecap:butt;stroke-linejoin:miter;stroke-opacity:1"
           d="m 162.42832,63.795772 c -1.56362,-3.123903 -5.28009,-6.013784 -9.87316,-3.757899 -22.83466,11.2152 -23.29748,37.625952 -3.26533,37.413925 6.33261,-1.520633 8.07567,-5.347955 10.61722,-8.877382 4.47369,-7.516651 6.43119,-18.024204 2.52127,-24.778644"
           id="path7921-2"
           sodipodi:nodetypes="csccc" />
        <path
           style="fill:none;stroke:#3e51ab;stroke-width:0.776991px;stroke-linecap:butt;stroke-linejoin:miter;stroke-opacity:1"
           d="m 93.216464,37.137724 c -3.279882,-1.202505 -7.96675,-0.758834 -9.764366,4.032183 -8.936991,23.818737 8.830848,43.364749 23.270202,29.478126 3.56814,-5.448155 2.21353,-9.429563 1.64449,-13.741464 -1.89559,-8.539373 -7.67343,-17.531432 -15.150326,-19.768845"
           id="path7921-2-1"
           sodipodi:nodetypes="csccc" />
        <path
           style="fill:none;stroke:#3e51ab;stroke-width:0.776991px;stroke-linecap:butt;stroke-linejoin:miter;stroke-opacity:1"
           d="m 140.24943,41.438553 c -1.54377,-3.13377 -5.24183,-6.047145 -9.84912,-3.82045 -22.90534,11.070129 -23.53569,37.477416 -3.5026,37.392458 6.34213,-1.48043 8.10943,-5.296622 10.67332,-8.809868 4.52128,-7.488106 6.5454,-17.983032 2.6784,-24.76214"
           id="path7921-2-6"
           sodipodi:nodetypes="csccc" />
        <path
           style="fill:none;stroke:#3e51ab;stroke-width:0.776991px;stroke-linecap:butt;stroke-linejoin:miter;stroke-opacity:1"
           d="m 129.81511,99.608336 c 0,0.550684 7.92127,6.560854 12.31825,11.893484 1.54052,1.86833 1.45629,6.01669 0.28318,10.19441 -1.22792,4.37299 -7.62238,8.08616 -11.96427,8.21214 -4.1141,0.11953 -32.069927,0.14155 -32.069927,0.14155 0,0 -1.415888,-5.66356 3.610517,-6.65468 5.02641,-0.99112 9.06171,0 9.69886,-3.75211 0.63715,-3.75212 1.13271,-10.97317 8.84931,-11.25635 7.7166,-0.28309 11.6811,0.63717 11.6811,0.63717 0,0 -2.82333,-2.16197 -8.56614,-1.27431 -1.64675,0.25461 -0.28318,-1.48668 -0.28318,-1.48668 0,0 4.57472,-0.072 4.88482,-6.583909 0.1416,-2.973341 1.55747,-0.07077 1.55747,-0.07077 z"
           id="path18556"
           sodipodi:nodetypes="cssscssscscscc" />
        <g
           id="g25658"
           transform="matrix(2.936662,0,0,2.936662,-99.842339,-625.18607)">
          <g
             id="g21642"
             style="stroke:#4559a5;stroke-opacity:1">
            <g
               id="g24455">
              <path
                 style="fill:none;stroke:#3e51ab;stroke-width:0.264583px;stroke-linecap:butt;stroke-linejoin:miter;stroke-opacity:1"
                 d="m 63.650973,245.53525 c 0,0 -8.437933,7.82425 1.67054,11.71082 l 1.15915,-0.017"
                 id="path20405" />
              <path
                 style="fill:none;stroke:#3e51ab;stroke-width:0.264583px;stroke-linecap:butt;stroke-linejoin:miter;stroke-opacity:1"
                 d="m 66.480663,257.22907 c 0,0 -0.767083,-1.7899 0.732993,-2.77859 1.500077,-0.98869 1.875095,-0.35797 2.863782,-1.44894 0.988687,-1.09096 0.306834,-3.34108 0.306834,-3.34108 l -0.46025,-0.017 -1.039826,-0.017 c 0,0 -1.227336,-0.39215 -1.517124,-1.10809 -0.289787,-0.71595 -2.880828,-0.61359 -2.880828,-0.61359 l -0.835271,-2.36944"
                 id="path20440" />
            </g>
          </g>
          <path
             id="path22436"
             style="fill:#3e51ab;stroke:#4559a5;stroke-width:0;stroke-linecap:round;stroke-linejoin:round;paint-order:markers fill stroke"
             d="m 67.415624,250.03929 a 0.24107142,0.25312501 0 0 1 -0.241071,0.25313 0.24107142,0.25312501 0 0 1 -0.241072,-0.25313 0.24107142,0.25312501 0 0 1 0.241072,-0.25312 0.24107142,0.25312501 0 0 1 0.241071,0.25312 z" />
        </g>
        <path
           id="path22438"
           style="fill:#3e51ab;stroke:#3e51ab;stroke-width:0;stroke-linecap:round;stroke-linejoin:round;paint-order:markers fill stroke"
           d="m 105.63876,86.475937 a 0.93802756,0.99112344 0 0 1 -0.93802,0.991123 0.93802756,0.99112344 0 0 1 -0.93803,-0.991123 0.93802756,0.99112344 0 0 1 0.93803,-0.991124 0.93802756,0.99112344 0 0 1 0.93802,0.991124 z" />
        <path
           style="fill:none;stroke:#3e51ab;stroke-width:0.776991px;stroke-linecap:butt;stroke-linejoin:miter;stroke-opacity:1"
           d="m 100.09448,80.850202 c 0,0 3.3039,-6.007118 17.12027,-2.603087 13.81636,3.404032 9.31103,21.325247 9.31103,21.325247 0,0 -2.40285,9.911738 -9.01067,4.004758 -6.60783,-5.90701 -1.50178,-20.524333 -1.50178,-20.524333 0,0 -5.30629,9.110788 -2.80333,15.61849 2.50297,6.507733 3.90463,6.808063 3.90463,6.808063 0,0 -3.10367,0.4005 -4.70557,3.80453 -1.60189,3.40404 2.10249,-6.30748 -10.61257,-8.00951 -12.715064,-1.701998 -9.511262,-1.20141 -9.511262,-1.20141 0,0 -2.102495,-1.201423 -1.301549,-1.401673 0.800954,-0.200281 4.691902,-0.321213 5.206173,-2.803309 0.53224,-2.568845 0.458627,0.762328 -2.402848,1.752072 -1.549697,0.535999 -4.004749,2.45291 -4.505341,-2.452906 -0.500592,-4.905811 -0.500592,-4.505339 -0.500592,-4.505339 l 10.912926,-5.806867 c 0,0 0.300353,-2.834789 0.400483,-4.004726 z"
           id="path17214"
           sodipodi:nodetypes="cscscscsscssssccc" />
      </g>
    </g>
  </g>
</svg>
